<svg width="28" height="23" viewBox="0 0 28 23" fill="none" xmlns="http://www.w3.org/2000/svg">
<g id="Page 1">
<path id="Stroke 1" d="M17.2506 21.5985H0.951634C0.840634 21.5985 0.749634 21.5085 0.749634 21.3975V5.99351V5.23851V0.951512C0.749634 0.840512 0.840634 0.749512 0.950634 0.749512H17.2506C17.3606 0.749512 17.4516 0.840512 17.4516 0.951512V6.35051" stroke="#FCCE00" stroke-width="1.5" stroke-linecap="round" stroke-linejoin="round"/>
<path id="Stroke 3" d="M24.6765 8.87061L17.7835 15.7736L12.0545 10.9916L7.23645 15.7736" stroke="#FCCE00" stroke-width="1.5" stroke-linecap="round" stroke-linejoin="round"/>
<path id="Fill 5" fill-rule="evenodd" clip-rule="evenodd" d="M4.40491 16.6733C4.40491 17.7593 5.28591 18.6403 6.37191 18.6403C7.45791 18.6403 8.33891 17.7593 8.33891 16.6733C8.33891 15.5873 7.45791 14.7063 6.37191 14.7063C5.28591 14.7063 4.40491 15.5873 4.40491 16.6733Z" fill="#FCCE00"/>
<g id="Group 9">
<path id="Fill 7" fill-rule="evenodd" clip-rule="evenodd" d="M23.8307 8.0024C23.8307 9.0884 24.7107 9.9694 25.7967 9.9694C26.8837 9.9694 27.7647 9.0884 27.7647 8.0024C27.7647 6.9164 26.8837 6.0354 25.7967 6.0354C24.7107 6.0354 23.8307 6.9164 23.8307 8.0024Z" fill="#FCCE00"/>
</g>
</g>
</svg>
