<svg width="29" height="21" viewBox="0 0 29 21" fill="none" xmlns="http://www.w3.org/2000/svg">
<path fill-rule="evenodd" clip-rule="evenodd" d="M2.61161 18.3818V3.60658L13.7534 11.3833C13.978 11.5398 14.2385 11.6183 14.4997 11.6183C14.7602 11.6183 15.0213 11.5398 15.2459 11.3833L26.3884 3.60658V18.3818H2.61161ZM23.2336 2.61821L14.4997 8.7134L5.76579 2.61821H23.2336ZM27.6942 0H27.3762H27.3756H1.30581C0.585001 0 0 0.585824 0 1.3091V19.6909C0 20.4135 0.585001 21 1.30581 21H27.6942C28.415 21 29 20.4135 29 19.6909V1.3091C29 0.585824 28.415 0 27.6942 0Z" fill="#F2695A"/>
</svg>
