<svg width="37" height="25" viewBox="0 0 37 25" fill="none" xmlns="http://www.w3.org/2000/svg">
<path fill-rule="evenodd" clip-rule="evenodd" d="M21.8142 0.426399C21.3983 0.523666 21.1397 0.941075 21.2366 1.35859C21.3333 1.7762 21.749 2.03581 22.165 1.93854C22.5682 1.84421 22.9755 1.77326 23.3848 1.72599C23.7893 1.67933 24.2024 1.65585 24.6222 1.65585C27.6106 1.65585 30.3161 2.87184 32.2744 4.83784C34.2326 6.80383 35.4438 9.51992 35.4438 12.5201C35.4438 15.5202 34.2326 18.2363 32.2744 20.2024C30.3161 22.1683 27.6106 23.3844 24.6222 23.3844C24.2057 23.3844 23.7958 23.3612 23.3952 23.3154C22.9844 23.2683 22.5793 23.1986 22.1818 23.1063C21.766 23.0107 21.3515 23.2716 21.2564 23.6893C21.1612 24.1068 21.4212 24.5229 21.8372 24.6184C22.2965 24.7251 22.7581 24.805 23.2197 24.8579C23.6911 24.9119 24.1595 24.939 24.6222 24.939C28.038 24.939 31.1306 23.549 33.3692 21.3016C35.6078 19.0541 36.9924 15.9495 36.9924 12.5201C36.9924 9.09077 35.6077 5.98601 33.3692 3.73865C31.1306 1.49128 28.038 0.101196 24.6222 0.101196C24.1558 0.101196 23.684 0.128727 23.2095 0.183484C22.74 0.237634 22.2741 0.318808 21.8142 0.426399Z" fill="#8FCB66"/>
<mask id="mask0_0_349" style="mask-type:alpha" maskUnits="userSpaceOnUse" x="0" y="0" width="25" height="25">
<path fill-rule="evenodd" clip-rule="evenodd" d="M0 0.101196H24.7405V24.939H0V0.101196Z" fill="white"/>
</mask>
<g mask="url(#mask0_0_349)">
<path fill-rule="evenodd" clip-rule="evenodd" d="M20.0223 4.83788C18.064 2.87189 15.3586 1.65589 12.3703 1.65589C9.38183 1.65589 6.6764 2.87189 4.71812 4.83788C2.75985 6.80377 1.54863 9.51996 1.54863 12.5201C1.54863 15.5203 2.75985 18.2364 4.71812 20.2025C6.6764 22.1683 9.38183 23.3843 12.3703 23.3843C15.3586 23.3843 18.0641 22.1683 20.0223 20.2025C21.9807 18.2364 23.1918 15.5203 23.1918 12.5201C23.1918 9.51996 21.9807 6.80387 20.0223 4.83788ZM12.3703 0.101135C15.7861 0.101135 18.8786 1.49122 21.1172 3.73868C23.3558 5.98605 24.7405 9.09081 24.7405 12.5201C24.7405 15.9494 23.3558 19.0542 21.1172 21.3015C18.8786 23.5489 15.7861 24.9391 12.3703 24.9391C8.95437 24.9391 5.8618 23.5489 3.62315 21.3015C1.3846 19.0542 -3.05176e-05 15.9494 -3.05176e-05 12.5201C-3.05176e-05 9.09081 1.3847 5.98605 3.62315 3.73868C5.8618 1.49122 8.95437 0.101135 12.3703 0.101135Z" fill="#8FCB66"/>
</g>
<path fill-rule="evenodd" clip-rule="evenodd" d="M18.0096 6.85849C16.5664 5.40961 14.5725 4.51345 12.3702 4.51345C10.1679 4.51345 8.17405 5.40961 6.73085 6.85849C5.28765 8.30738 4.39502 10.3091 4.39502 12.5201C4.39502 14.7311 5.28765 16.7329 6.73085 18.1817C8.17405 19.6306 10.1679 20.5267 12.3702 20.5267C14.5725 20.5267 16.5664 19.6306 18.0096 18.1817C19.4528 16.7329 20.3454 14.7311 20.3454 12.5201C20.3454 10.3091 19.4528 8.30738 18.0096 6.85849ZM12.3702 3.73602C14.7863 3.73602 16.9737 4.71932 18.557 6.3089C20.1404 7.89847 21.1198 10.0945 21.1198 12.5201C21.1198 14.9456 20.1405 17.1417 18.557 18.7313C16.9737 20.3208 14.7863 21.3041 12.3702 21.3041C9.95419 21.3041 7.76675 20.3208 6.18341 18.7313C4.60008 17.1417 3.62064 14.9456 3.62064 12.5201C3.62064 10.0945 4.60008 7.89847 6.18341 6.3089C7.76675 4.71932 9.95419 3.73602 12.3702 3.73602Z" fill="#8FCB66"/>
<mask id="mask1_0_349" style="mask-type:alpha" maskUnits="userSpaceOnUse" x="14" y="0" width="18" height="25">
<path fill-rule="evenodd" clip-rule="evenodd" d="M14.8406 0.101196H31.2889V24.939H14.8406V0.101196Z" fill="white"/>
</mask>
<g mask="url(#mask1_0_349)">
<path fill-rule="evenodd" clip-rule="evenodd" d="M15.3954 0.617633C14.9861 0.738382 14.7519 1.16935 14.8722 1.58018C14.9924 1.99101 15.4217 2.22624 15.831 2.10549C16.3306 1.9563 16.8408 1.84365 17.3573 1.76814C17.8682 1.69354 18.39 1.65589 18.9186 1.65589C21.907 1.65589 24.6126 2.87188 26.5708 4.83788C28.529 6.80387 29.7403 9.51996 29.7403 12.5202C29.7403 15.5203 28.529 18.2364 26.5708 20.2024C24.6126 22.1683 21.907 23.3844 18.9186 23.3844C18.4095 23.3844 17.9098 23.3501 17.4233 23.282C16.9344 23.2136 16.445 23.1097 15.9587 22.9709C15.5478 22.8535 15.1199 23.0927 15.0029 23.5053C14.8861 23.9177 15.1244 24.3474 15.5353 24.4647C16.0806 24.6204 16.6408 24.7385 17.2117 24.8184C17.7848 24.8986 18.3552 24.9391 18.9186 24.9391C22.3345 24.9391 25.4271 23.549 27.6657 21.3015C29.9043 19.0542 31.2889 15.9495 31.2889 12.5202C31.2889 9.09081 29.9043 5.98605 27.6657 3.73869C25.4271 1.49122 22.3345 0.101135 18.9186 0.101135C18.3281 0.101135 17.7335 0.144961 17.1396 0.231702C16.5515 0.317633 15.9685 0.446581 15.3954 0.617633Z" fill="#8FCB66"/>
</g>
<path fill-rule="evenodd" clip-rule="evenodd" d="M13.1762 16.1013C13.5442 16.0335 13.842 15.8626 14.0724 15.5912C14.3027 15.3173 14.4178 14.9981 14.4178 14.6286C14.4178 14.2995 14.3202 14.018 14.1274 13.7792C13.9347 13.5405 13.6168 13.3571 13.1762 13.2315V16.1013ZM12.1149 8.26809C11.8245 8.36606 11.5967 8.53449 11.424 8.76819C11.2538 9.00442 11.1686 9.26576 11.1686 9.54977C11.1686 9.80857 11.2463 10.0524 11.4014 10.2735C11.5591 10.4971 11.7969 10.6781 12.1149 10.8164V8.26809ZM12.1149 15.9982V12.9147C11.1561 12.6383 10.4527 12.2237 10.0047 11.6658C9.5591 11.1079 9.33387 10.4319 9.33387 9.63772C9.33387 8.83347 9.58672 8.15756 10.0923 7.60969C10.6004 7.06181 11.2738 6.74764 12.1149 6.66222V5.93347H13.1762V6.66222C13.9547 6.75776 14.5729 7.02163 15.0336 7.46141C15.4917 7.90118 15.7846 8.48924 15.9122 9.22558L14.0574 9.4694C13.9448 8.88884 13.6518 8.49683 13.1762 8.29076V11.1682C14.3502 11.4873 15.1512 11.902 15.5744 12.4096C15.9998 12.9173 16.2126 13.5681 16.2126 14.3647C16.2126 15.2518 15.9448 16.0008 15.4115 16.609C14.8759 17.2196 14.13 17.5916 13.1762 17.7297V19.1068H12.1149V17.7649C11.2689 17.6619 10.5804 17.3453 10.0523 16.815C9.52401 16.2873 9.18859 15.5383 9.04089 14.5708L10.9559 14.3647C11.0336 14.7568 11.1811 15.096 11.3965 15.38C11.6092 15.664 11.8496 15.8701 12.1149 15.9982Z" fill="#8FCB66"/>
</svg>
