<svg width="21" height="23" viewBox="0 0 21 23" fill="none" xmlns="http://www.w3.org/2000/svg">
<path fill-rule="evenodd" clip-rule="evenodd" d="M14.8653 23C13.1404 22.9619 11.6656 22.572 10.3419 21.7616C5.92973 19.0607 2.68755 15.2796 0.703333 10.4351C-0.198303 8.23386 -0.278781 5.95396 0.729094 3.71428C1.40826 2.20506 2.62047 1.20606 3.87915 0.259389C4.38448 -0.120628 4.96462 -0.0634675 5.46418 0.303075C5.77898 0.534139 6.07719 0.822467 6.29997 1.1448C7.0964 2.29706 7.96661 3.41153 8.29624 4.83181C8.47904 5.61995 8.27893 6.29882 7.72517 6.84611C7.28353 7.28276 6.8018 7.68173 6.31017 8.06006C5.53806 8.6543 5.21718 9.33148 5.58927 10.2515C5.976 11.2075 6.48535 12.1333 7.07064 12.9785C7.94301 14.2384 8.96778 15.3808 10.2118 16.2823C10.5705 16.5422 10.9721 16.7547 11.379 16.9275C12.1263 17.2453 12.7794 17.035 13.3484 16.4709C13.7542 16.0686 14.1679 15.6742 14.5892 15.289C15.3347 14.6074 16.1858 14.4822 17.0628 14.9441C18.4674 15.6836 19.6433 16.7301 20.613 17.9974C21.126 18.6675 21.1302 19.4286 20.6185 19.9698C19.3457 21.3158 17.9658 22.5169 16.0737 22.8504C15.6192 22.9304 15.1569 22.9648 14.8653 23Z" fill="#8FCB66"/>
</svg>
