<svg width="28" height="28" viewBox="0 0 28 28" fill="none" xmlns="http://www.w3.org/2000/svg">
<g id="Page 1">
<path id="Stroke 1" d="M27.0089 6.65424L24.6479 9.01524C23.3489 10.3142 20.9569 10.0482 19.3339 8.42524C17.7099 6.80124 17.4449 4.41024 18.7429 3.11124L21.1049 0.750244" stroke="#FCCE00" stroke-width="1.5" stroke-linecap="round" stroke-linejoin="round"/>
<path id="Stroke 3" d="M0.750122 21.1044C0.750122 21.1044 1.81212 20.0424 3.11112 18.7434C4.41012 17.4444 6.80112 17.7104 8.42512 19.3334C10.0481 20.9574 10.3141 23.3484 9.01612 24.6474C7.71712 25.9454 6.65412 27.0084 6.65412 27.0084" stroke="#FCCE00" stroke-width="1.5" stroke-linecap="round" stroke-linejoin="round"/>
<path id="Stroke 5" d="M19.334 8.42358L8.42505 19.3346" stroke="#FCCE00" stroke-width="1.5" stroke-linecap="round" stroke-linejoin="round"/>
<path id="Stroke 7" d="M17.7579 14.8047L24.1969 21.2437C25.1429 22.1887 25.2509 23.6257 24.4399 24.4377C23.6279 25.2487 22.1919 25.1397 21.2459 24.1957L14.8049 17.7557" stroke="#FCCE00" stroke-width="1.5" stroke-linecap="round" stroke-linejoin="round"/>
<path id="Stroke 9" d="M1.84375 1.84619L16.2797 16.2822" stroke="#FCCE00" stroke-width="1.5" stroke-linecap="round" stroke-linejoin="round"/>
</g>
</svg>
